<svg width="284" height="175" xmlns="http://www.w3.org/2000/svg">

 <g>
  <title>background</title>
  <rect fill="none" id="canvas_background" height="177" width="286" y="-1" x="-1"/>
 </g>
 <g>
  <title>Layer 1</title>
  <g stroke="null" id="svgg">
   <path stroke="null" fill-rule="evenodd" fill="#000000" d="m71.89895,154.85636c-0.0069,6.67161 0.11385,10.61358 0.32775,10.74606c0.22011,0.13593 0.34431,-2.11278 0.35811,-6.48324c0.03243,-10.81989 -0.04209,-13.7172 -0.36777,-14.27403c-0.18975,-0.3243 -0.31188,3.51141 -0.31809,10.01121m35.27349,0.27324c0,5.76012 0.04554,8.16408 0.10212,5.34198c0.05658,-2.8221 0.05658,-7.5348 0,-10.47282c-0.05589,-2.93733 -0.10212,-0.62859 -0.10212,5.13084m38.97396,-9.37503c3.03048,0.05589 7.89567,0.05589 10.81023,0c2.91456,-0.05658 0.4347,-0.10212 -5.51103,-0.10212c-5.94573,0 -8.33037,0.04623 -5.2992,0.10212m101.32512,-0.00828c0.60375,0.07521 1.59183,0.07521 2.19558,0c0.60375,-0.07521 0.10971,-0.13662 -1.09779,-0.13662c-1.20819,0 -1.70223,0.06141 -1.09779,0.13662m-12.41517,8.3421c0,0.35604 1.01775,1.31859 1.2006,1.13574c0.08487,-0.08487 -0.15042,-0.43056 -0.52302,-0.76797c-0.3726,-0.33741 -0.67758,-0.50301 -0.67758,-0.36777m-171.782399,8.64156c0,2.00859 0.11454,3.5811 0.25392,3.49554c0.13869,-0.08625 0.25323,-1.65876 0.25323,-3.49485c0,-1.83609 -0.11454,-3.4086 -0.25323,-3.49485c-0.13938,-0.08625 -0.25392,1.48626 -0.25392,3.49416m126.7392,-3.49002c-0.36363,0.36363 -0.25944,7.14564 0.11316,7.3761c0.21735,0.13455 0.33741,-1.17921 0.33741,-3.69633c0,-3.89643 -0.02553,-4.10481 -0.45057,-3.67977m-77.80371,3.65976c-0.00138,1.67187 0.05589,2.39913 0.12696,1.6146c0.07038,-0.78384 0.07176,-2.15211 0.00138,-3.04014c-0.06969,-0.88803 -0.12765,-0.24702 -0.12834,1.42554m148.617719,7.43199c0.00276,0.92874 0.06831,1.26891 0.14628,0.75555c0.07728,-0.51336 0.07521,-1.27374 -0.00483,-1.68912c-0.08004,-0.41538 -0.14352,0.00483 -0.14145,0.93357" id="path0"/>
   <path stroke="null" fill-rule="evenodd" fill="#ffd731" d="m132.02072,31.30427c-0.83628,0.15387 -2.32254,0.3933 -3.30372,0.53268c-0.98049,0.13938 -1.86369,0.38364 -1.96236,0.54303c-0.09798,0.15939 -0.54648,0.2898 -0.99567,0.2898c-0.44919,0 -1.82643,0.3795 -3.06084,0.84456c-1.23372,0.46437 -2.7048,0.84456 -3.26784,0.84456c-1.00395,0 -4.69821,1.57596 -4.9197,2.09898c-0.0621,0.14559 -0.33879,0.26565 -0.61548,0.26565c-0.27669,0 -0.70311,0.18975 -0.94737,0.42228c-1.12194,1.06467 -1.9182,1.60425 -2.36739,1.60425c-0.26772,0 -0.86733,0.38019 -1.3317,0.84456c-0.46437,0.46506 -0.9867,0.84456 -1.15989,0.84456c-0.17319,0 -0.67413,0.45471 -1.11297,1.01085c-0.43884,0.55545 -0.97635,1.01154 -1.19439,1.01361c-0.40434,0.00276 -5.17776,4.51122 -5.17776,4.89003c0,0.23046 -0.45816,0.81213 -1.60494,2.03895c-0.41814,0.44712 -0.75969,0.91632 -0.75969,1.0419c0,0.12627 -0.26634,0.47541 -0.59133,0.77625c-0.66585,0.61686 -1.46142,1.89405 -2.49642,4.00821c-0.38709,0.79005 -0.83835,1.43589 -1.00395,1.43589c-0.16491,0 -0.30015,0.30429 -0.30015,0.67551c0,0.37191 -0.15249,0.67551 -0.3381,0.67551c-0.18561,0 -0.33741,0.30429 -0.33741,0.6762c0,0.37122 -0.15249,0.67551 -0.3381,0.67551c-0.18561,0 -0.3381,0.38019 -0.3381,0.84456c0,0.46437 -0.14214,0.84456 -0.31671,0.84456c-0.17457,0 -0.41952,0.68379 -0.5451,1.52007c-0.12558,0.83628 -0.36294,1.52007 -0.52785,1.52007c-0.16422,0 -0.29946,0.45609 -0.29946,1.01361c0,0.55752 -0.1518,1.01361 -0.33741,1.01361c-0.18561,0 -0.3381,0.53199 -0.3381,1.18197c0,0.65067 -0.1518,1.18266 -0.33741,1.18266c-0.1863,0 -0.3381,0.67482 -0.3381,1.50006c0,0.82524 -0.1518,1.59459 -0.3381,1.70913c-0.20907,0.12972 -0.33741,3.21264 -0.33741,8.12751c0,5.05425 0.12213,7.91913 0.33741,7.91913c0.1863,0 0.3381,0.68379 0.3381,1.52007c0,0.83628 0.12075,1.52007 0.2691,1.52007c0.14766,0 0.30636,0.56994 0.35259,1.26684c0.04554,0.6969 0.22908,1.3179 0.40641,1.37931c0.17802,0.0621 0.32292,0.54717 0.32292,1.07847c0,0.53061 0.13455,1.04811 0.29946,1.14954c0.16422,0.10212 0.40158,0.87078 0.52716,1.70913c0.12558,0.83835 0.37122,1.52421 0.54579,1.52421c0.17457,0 0.31671,0.30429 0.31671,0.6762c0,0.37122 0.15249,0.67551 0.3381,0.67551c0.18561,0 0.3381,0.34638 0.3381,0.77004c0,0.42366 0.3036,0.98877 0.67551,1.25649c0.37122,0.26841 0.67551,0.75762 0.67551,1.08813c0,0.33051 0.1518,0.60099 0.3381,0.60099c0.18561,0 0.33741,0.21597 0.33741,0.47955c0,0.60306 1.09572,2.55645 1.43589,2.55921c0.13938,0.00069 0.25323,0.20769 0.25323,0.45885c0,0.25116 0.45609,0.93357 1.01361,1.51662c0.55752,0.58374 1.01361,1.14471 1.01361,1.24683c0,0.72588 8.72091,9.27912 9.46128,9.27912c0.18423,0 0.33534,0.14145 0.33534,0.31464c0,0.17388 0.30912,0.41331 0.68655,0.53337c0.37743,0.12006 1.0488,0.5796 1.49109,1.02258c0.44229,0.44229 1.23096,0.91149 1.75122,1.0419c0.52095,0.1311 1.24683,0.51681 1.61322,0.85836c0.36639,0.34155 0.94116,0.621 1.27788,0.621c0.33672,0 0.61203,0.1518 0.61203,0.33741c0,0.18561 0.30429,0.3381 0.67551,0.3381c0.37191,0 0.67551,0.1518 0.67551,0.33741c0,0.1863 0.29187,0.3381 0.64791,0.3381c0.35604,0 0.69828,0.11385 0.75969,0.25323c0.17595,0.39537 3.38583,1.43934 4.42014,1.43727c0.51129,-0.00069 0.92874,0.15042 0.92874,0.33672c0,0.18561 0.60858,0.33741 1.35171,0.33741c0.74313,0 1.35102,0.1518 1.35102,0.3381c0,0.18561 0.67551,0.33741 1.50006,0.33741c0.82524,0 1.59459,0.15249 1.70913,0.3381c0.2829,0.45747 14.91987,0.45747 15.20208,0c0.11523,-0.18561 0.88389,-0.3381 1.70913,-0.3381c0.82524,0 1.50006,-0.1518 1.50006,-0.33741c0,-0.1863 0.53199,-0.3381 1.18266,-0.3381c0.64998,0 1.18266,-0.13248 1.18266,-0.29394c0,-0.16215 0.7728,-0.39744 1.7181,-0.52233c0.9453,-0.12558 2.00928,-0.37329 2.36463,-0.55062c0.35535,-0.17733 0.94875,-0.47403 1.31721,-0.65964c0.36915,-0.1863 0.90114,-0.3381 1.18266,-0.3381c0.28152,0 0.51129,-0.1518 0.51129,-0.3381c0,-0.18561 0.38019,-0.33741 0.84456,-0.33741c0.46437,0 0.84456,-0.15249 0.84456,-0.3381c0,-0.18561 0.19941,-0.33741 0.44298,-0.33741c0.24357,0 0.75072,-0.28635 1.12608,-0.63687c0.37605,-0.34983 1.13505,-0.73554 1.68705,-0.85698c0.55269,-0.12144 1.21923,-0.51888 1.48212,-0.88389c0.26289,-0.36432 0.71484,-0.66309 1.00464,-0.66309c0.2898,0 0.74589,-0.3036 1.01361,-0.67551c0.26772,-0.37191 0.61203,-0.67551 0.76452,-0.67551c0.32223,0 0.85698,-0.42366 2.45157,-1.94235c0.63411,-0.60375 1.23096,-1.09848 1.32618,-1.09848c0.27393,0 3.90333,-3.82122 3.90333,-4.10964c0,-0.14283 0.53199,-0.79143 1.18197,-1.44141c0.65067,-0.65067 1.18266,-1.27029 1.18266,-1.37793c0,-0.10764 0.38019,-0.57546 0.84456,-1.04052c0.46437,-0.46437 0.84456,-1.06536 0.84456,-1.33584c0,-0.26979 0.1518,-0.49128 0.3381,-0.49128c0.18561,0 0.33741,-0.2277 0.33741,-0.50646c0,-0.27876 0.1518,-0.50715 0.3381,-0.50715c0.18561,0 0.33741,-0.2277 0.33741,-0.50646c0,-0.27876 0.15249,-0.50646 0.3381,-0.50646c0.18561,0 0.3381,-0.29187 0.3381,-0.64791c0,-0.35604 0.11937,-0.69828 0.26565,-0.75969c0.51405,-0.21804 2.09898,-3.90816 2.09898,-4.88796c0,-0.5451 0.32499,-1.89819 0.72243,-3.00633c2.36187,-6.58398 3.17676,-17.26932 1.81539,-23.805c-0.32913,-1.57941 -0.67137,-3.36651 -0.76107,-3.97233c-0.08901,-0.60582 -0.29739,-1.18473 -0.46299,-1.28685c-0.1656,-0.10212 -0.30015,-0.46161 -0.30015,-0.79902c0,-0.62514 -2.06172,-6.08097 -2.74344,-7.2588c-0.20631,-0.35742 -0.75969,-1.3455 -1.22958,-2.19627c-4.02684,-7.2933 -11.8404,-15.25452 -17.98554,-18.32364c-0.83628,-0.41814 -1.90026,-1.00326 -2.36463,-1.30065c-0.46506,-0.29808 -1.90923,-0.96531 -3.20988,-1.48419c-1.30065,-0.51819 -2.66823,-1.06674 -3.04014,-1.21854c-0.37122,-0.15249 -1.0557,-0.37605 -1.52007,-0.4968c-0.46437,-0.12075 -1.37655,-0.37191 -2.02722,-0.55752c-4.27662,-1.21992 -14.68596,-1.9734 -18.24222,-1.31997" id="path1"/>
   <path stroke="null" fill-rule="evenodd" fill="#00ffff" d="m118.62989,162.730639c0,1.76502 0.05658,2.48745 0.12627,1.60494c0.06969,-0.88251 0.06969,-2.32668 0,-3.20919c-0.06969,-0.88251 -0.12627,-0.16077 -0.12627,1.60425" id="path2"/>
   <path stroke="null" fill-rule="evenodd" fill="#1b96fe" d="m66.73706,143.85569l-0.92943,0.35121l0,11.94459c0,7.59828 0.12282,12.02049 0.3381,12.15297c0.18561,0.11523 0.33741,0.4347 0.33741,0.71001c0,0.52371 0.11592,0.69 1.77606,2.54541l1.01637,1.13643l7.80942,0.11178c6.8655,0.09798 7.94052,0.0414 8.89272,-0.46782c1.13091,-0.60444 2.80209,-2.80485 2.80209,-3.69012c0,-0.2829 0.1518,-0.51405 0.33741,-0.51405c0.21114,0 0.3381,-2.02032 0.3381,-5.38545c0,-3.22575 -0.13524,-5.46894 -0.3381,-5.59383c-0.18561,-0.11523 -0.33741,-0.49473 -0.33741,-0.84456c0,-2.74482 -4.02408,-4.39185 -10.72881,-4.39185c-5.85327,0 -5.48688,-0.23667 -5.48688,3.53901c0,2.99667 -0.20562,2.87937 5.06736,2.87937c5.42961,0 5.06736,-0.2898 5.06736,4.06272c0,5.09703 0.38571,4.72167 -4.85001,4.71546c-6.38388,-0.0069 -5.9409,0.93219 -6.04716,-12.83193l-0.08211,-10.64118l-2.02653,-0.06969c-1.11504,-0.03864 -2.44536,0.08832 -2.95596,0.28152m25.31334,0.12282c-0.49749,0.36363 -0.58236,0.85974 -0.49956,2.92353l0.10005,2.48469l3.01185,0.09867c3.54315,0.11592 3.56385,0.09867 3.57075,-2.97321c0.00414,-1.74846 -0.11868,-2.27631 -0.59754,-2.57577c-0.84249,-0.52578 -4.85001,-0.49611 -5.58555,0.04209m9.10455,0.01173c-0.49197,0.36018 -0.55131,1.66635 -0.55131,12.07362c0,12.60009 0.13455,13.56954 2.09484,15.03579c0.31602,0.23598 0.83628,0.69207 1.15713,1.01292c0.45402,0.45471 1.31652,0.60927 3.90195,0.70035l3.31821,0.11592l0,-2.88489l0,-2.8842l-1.59666,-0.1035c-2.45571,-0.15801 -2.44605,-0.10971 -2.45226,-12.35721l-0.00483,-10.56528l-0.90597,-0.34431c-1.16886,-0.44436 -4.24833,-0.31947 -4.9611,0.20079m-95.22621,1.88853l-0.92874,0.69276l0,13.15968l0,13.15968l3.12501,-0.09729l3.12501,-0.09729l0.16836,-5.91192c0.18837,-6.58191 -0.04002,-6.31971 2.0631,-2.36463c0.44505,0.83628 0.90321,1.59597 1.01844,1.68912c0.11523,0.09315 0.67896,1.10193 1.25235,2.24181c0.5727,1.13919 1.23855,2.28597 1.47867,2.54748c0.24081,0.26151 0.60513,0.77349 0.81006,1.13712c0.70035,1.242 5.87673,1.09986 5.87673,-0.16146c0,-0.35259 0.13593,-0.69207 0.30222,-0.75417c0.4209,-0.15663 2.34669,-3.49623 2.6013,-4.51053c0.11592,-0.46092 0.32775,-0.83766 0.47058,-0.83766c0.14283,0 0.44919,-0.45609 0.68034,-1.01361c0.23046,-0.55752 0.55338,-1.01361 0.71622,-1.01361c0.16353,0 0.2967,-0.30429 0.2967,-0.67551c0,-0.37191 0.13455,-0.67551 0.29877,-0.67551c0.16422,0 0.42504,-0.34224 0.58098,-0.76038c0.17457,-0.46989 0.32085,1.52697 0.38502,5.23641l0.10212,5.9961l3.37065,0l3.37065,0l0,-12.64839c0,-8.06748 -0.12282,-12.7236 -0.3381,-12.85677c-0.18561,-0.11523 -0.33879,-0.46644 -0.34017,-0.78039c-0.00345,-0.68172 -1.44417,-1.41588 -2.77932,-1.41588c-1.12539,0 -2.62338,0.8901 -2.62338,1.5594c0,0.25737 -0.1518,0.46782 -0.3381,0.46782c-0.18561,0 -0.33741,0.20907 -0.33741,0.46506c0,0.25599 -0.21804,0.64653 -0.48507,0.86802c-0.26634,0.2208 -0.78108,0.96186 -1.14333,1.64565c-0.36225,0.68448 -1.01844,1.92786 -1.45797,2.76414c-0.43953,0.83628 -0.87492,1.59597 -0.96738,1.68912c-0.16767,0.16767 -1.33929,2.27493 -2.34738,4.2228c-0.28842,0.55752 -0.63825,1.06398 -0.77763,1.12608c-0.13938,0.0621 -0.25323,0.32775 -0.25323,0.59133c0,0.26289 -0.1242,0.47817 -0.27531,0.47817c-0.15111,0 -0.483,0.53199 -0.7383,1.18266c-0.4554,1.16058 -1.68912,1.70085 -1.68912,0.73899c0,-0.24357 -0.27186,-0.73761 -0.60375,-1.09779c-0.33189,-0.36018 -0.81213,-1.16196 -1.06674,-1.78158c-0.25392,-0.61962 -0.62928,-1.30341 -0.83352,-1.52007c-0.20424,-0.21666 -0.75003,-1.15368 -1.21233,-2.08242c-0.4623,-0.92943 -1.02189,-1.88094 -1.24407,-2.11485c-0.22218,-0.2346 -0.59547,-0.95634 -0.83007,-1.60494c-0.2346,-0.6486 -0.54786,-1.17921 -0.69621,-1.17921c-0.14835,0 -0.26979,-0.2277 -0.26979,-0.50646c0,-0.27876 -0.1518,-0.50646 -0.3381,-0.50646c-0.18561,0 -0.33741,-0.22839 -0.33741,-0.50715c0,-0.27876 -0.15249,-0.50646 -0.3381,-0.50646c-0.18561,0 -0.33741,-0.30429 -0.33741,-0.67551c0,-0.37191 -0.15249,-0.67551 -0.3381,-0.67551c-0.18561,0 -0.3381,-0.19941 -0.3381,-0.44298c0,-1.98927 -3.66252,-3.24576 -5.48964,-1.88301m132.25713,0.8142c-0.83766,0.89493 -1.24269,22.11864 -0.42228,22.11864c0.1863,0 0.3381,0.17526 0.3381,0.39054c0,0.61755 1.67532,2.6496 2.18454,2.6496c0.25392,0 0.52509,0.19044 0.60237,0.42228c0.10764,0.32361 2.71791,0.44505 11.17593,0.52026l11.03586,0.09798l0,-2.35083c0,-3.7398 0.89424,-3.41895 -9.5427,-3.41895c-11.21181,0 -10.02639,0.96738 -10.04019,-8.19237l-0.01104,-7.00971l9.59238,0c7.36989,0 9.6255,-0.09798 9.73728,-0.42228c0.26289,-0.75969 0.32085,-3.61905 0.09453,-4.64991l-0.22149,-1.00878l-11.8818,0.0207l-11.88111,0.0207l-0.76038,0.81213m107.0052,2.16177l0,3.03945l-2.95596,0.09729l-2.95596,0.09798l-0.09936,2.8428c-0.11799,3.40308 -0.12627,3.3948 3.39273,3.4017l2.61855,0.00483l0,7.26363l0,7.26294l3.17331,0c3.89229,0 3.58317,0.67344 3.58317,-7.79769l0,-6.72888l3.63147,-0.00483c4.6437,-0.0069 4.52778,0.0828 4.40634,-3.4017l-0.09936,-2.8428l-3.95646,-0.09522l-3.95646,-0.09522l-0.09729,-2.94492l-0.09729,-2.94561l-3.29406,-0.0966l-3.29337,-0.0966l0,3.03945m-200.496749,3.52176c-0.55752,0.21183 -1.21578,0.57615 -1.46211,0.81075c-0.24702,0.2346 -0.74106,0.58305 -1.09848,0.77418c-0.35673,0.19113 -0.64929,0.56994 -0.64929,0.84249c0,0.27186 -0.12765,0.49473 -0.28359,0.49473c-0.75417,0 -1.23648,3.05256 -1.23234,7.80114c0.00483,5.83119 0.48714,7.25328 3.00012,8.84304l1.45866,0.92253l7.28985,0c11.15523,0 11.53611,-0.33534 11.51541,-10.13472c-0.0138,-6.49221 -0.42573,-8.10543 -2.32944,-9.12456c-0.46092,-0.24633 -0.83835,-0.57477 -0.83835,-0.72933c0,-0.15456 -0.29463,-0.28083 -0.6555,-0.28083c-0.36087,0 -0.75003,-0.1518 -0.86457,-0.33741c-0.29532,-0.47817 -12.55386,-0.37398 -13.85037,0.11799m47.19324,-0.05037c-0.29739,0.2967 -0.40503,3.09258 -0.40503,10.47213l0,10.0671l3.37824,0l3.37824,0l0,-9.8187c0,-6.12306 -0.13179,-10.06503 -0.34983,-10.47282c-0.41745,-0.77901 -5.26953,-0.9798 -6.00162,-0.24771m25.01595,0.04209c-0.60375,0.20217 -1.09779,0.48852 -1.09779,0.63549c0,0.14766 -0.15249,0.26772 -0.3381,0.26772c-0.18561,0 -0.6417,0.30429 -1.01361,0.6762c-0.37122,0.37122 -0.67551,0.82731 -0.67551,1.01292c0,0.1863 -0.12765,0.3381 -0.28359,0.3381c-0.80592,0 -1.10124,2.06241 -1.10124,7.68315l0,5.88846l1.11435,1.48005c1.80987,2.40189 2.36049,2.54403 9.45921,2.43846l6.1824,-0.09246l0.10005,-2.28873c0.14214,-3.26301 0.12696,-3.27198 -5.73459,-3.34926l-4.83828,-0.06348l6.25002,-0.18975c7.12839,-0.21597 7.62381,-0.39054 9.49923,-3.34719c2.35773,-3.7191 0.50025,-9.98568 -3.27198,-11.03517c-1.5525,-0.43194 -12.99132,-0.47541 -14.25057,-0.05451m48.40143,0.09798c-0.91494,0.91494 -0.621,18.67485 0.32637,19.72089c0.79005,0.87216 8.487,0.94392 9.34398,0.08694c0.23184,-0.23184 0.69552,-0.42228 1.03017,-0.42228c0.33396,0 0.60789,-0.1518 0.60789,-0.33741c0,-0.1863 0.23322,-0.3381 0.51819,-0.3381c0.61617,0 2.13279,-0.92322 2.89938,-1.76502c0.30084,-0.32982 0.71898,-0.59961 0.92943,-0.59961c0.21045,0 0.38364,-0.11385 0.38571,-0.25323c0.00207,-0.13938 0.76245,-1.05018 1.68912,-2.02308c0.92736,-0.97359 1.68567,-1.92303 1.68567,-2.1114c0,-0.18768 0.1518,-0.34155 0.3381,-0.34155c0.18561,0 0.33741,-0.22839 0.33741,-0.50715c0,-0.27876 0.13455,-0.50646 0.29877,-0.50646c0.16422,0 0.38778,-0.26634 0.4968,-0.59133c0.10902,-0.32499 0.345,-0.81903 0.5244,-1.09779c0.1794,-0.27876 0.5244,-1.00119 0.76797,-1.60494c0.24288,-0.60375 0.55683,-1.09779 0.69759,-1.09779c0.14007,0 0.2553,-0.38019 0.2553,-0.84456c0,-0.46437 0.1518,-0.84456 0.33741,-0.84456c0.1863,0 0.3381,-0.29532 0.3381,-0.6555c0,-0.36087 0.13179,-0.73761 0.29325,-0.83697c0.53682,-0.33189 0.78729,-2.98563 0.31119,-3.28854c-1.97616,-1.25304 -6.68541,0.03588 -6.68541,1.83057c0,0.63066 -0.79143,2.26872 -1.09779,2.27217c-0.13938,0.00138 -0.25323,0.28773 -0.25323,0.63687c0,0.34914 -0.22839,0.82386 -0.50715,1.05501c-0.27876,0.23115 -0.50646,0.56028 -0.50646,0.73071c0,1.19646 -5.53725,7.03731 -6.6723,7.03869c-0.23184,0 -0.42228,0.13524 -0.42228,0.30015c0,0.16422 -0.45609,0.36639 -1.01292,0.44781l-1.01361,0.14904l0,-7.16841c0,-8.20341 0.27876,-7.57896 -3.38169,-7.57896c-1.67946,0 -2.46261,0.14973 -2.85936,0.54579m29.71968,-0.20769c-0.11523,0.18561 -0.45195,0.33741 -0.74865,0.33741c-0.69138,0 -3.13674,2.48124 -3.13674,3.18297c0,0.29325 -0.1518,0.53337 -0.33741,0.53337c-0.52854,0 -0.44781,12.72843 0.08418,13.39152c0.23253,0.28842 0.93081,1.08054 1.55112,1.75881l1.12953,1.23372l6.72474,0.10971l6.72543,0.1104l0,-2.49159c0,-3.35823 0.09522,-3.30234 -5.64144,-3.30234c-4.23108,0 -4.83069,-0.06831 -4.83069,-0.54786c0,-0.4416 0.09591,-0.4692 0.49128,-0.14076c0.75555,0.62721 11.56578,0.34983 12.66495,-0.32499c1.14126,-0.70035 2.38326,-1.92441 2.38326,-2.34945c0,-0.19389 0.15249,-0.35328 0.3381,-0.35328c0.18561,0 0.3381,-0.29463 0.3381,-0.6555c0,-0.36087 0.1518,-0.74934 0.33741,-0.86457c0.48507,-0.29946 0.41745,-4.77066 -0.08418,-5.63178c-0.81213,-1.39173 -3.08913,-3.65838 -3.67563,-3.65838c-0.32568,0 -0.68586,-0.1518 -0.8004,-0.33741c-0.12765,-0.20631 -2.75586,-0.3381 -6.75648,-0.3381c-4.00062,0 -6.62883,0.13179 -6.75648,0.3381m21.50385,0.02208c-0.43539,0.17457 -0.87078,0.621 -0.96807,0.99222c-0.09729,0.37122 -0.3105,0.67482 -0.47472,0.67482c-0.1656,0 -0.29877,4.21038 -0.29877,9.45852l0,9.45921l3.37824,0l3.37824,0l0,-7.26294l0,-7.26363l3.63147,0.04002c6.83307,0.07521 6.83997,0.08418 6.84066,8.6595l0.00069,5.82705l3.20919,0l3.20919,0l0,-7.07457c0,-4.35183 -0.13041,-7.15461 -0.3381,-7.28295c-0.18561,-0.11454 -0.33741,-0.4968 -0.33741,-0.84939c0,-0.67896 -3.4017,-4.38702 -4.02477,-4.38702c-0.20217,0 -0.36708,-0.11454 -0.36708,-0.2553c0,-0.99084 -14.60868,-1.62909 -16.83876,-0.73554m48.76713,-0.02898c-0.1173,0.18975 -0.48576,0.34431 -0.81834,0.34431c-0.88803,0 -2.72412,1.8975 -2.95527,3.05394c-0.1104,0.54993 -0.33327,0.99981 -0.49542,0.99981c-0.45333,0 -0.34224,2.37222 0.18147,3.87711c0.66585,1.9113 2.6496,3.89298 3.8985,3.89298c0.35811,0 0.74589,0.1518 0.86043,0.3381c0.12282,0.19872 2.12451,0.33741 4.86174,0.33741c5.09427,0 5.22744,0.03519 4.68924,1.21647l-0.36915,0.81075l-6.86481,0l-6.86481,0l-0.19458,0.77418c-0.10626,0.42573 -0.14766,1.68015 -0.09039,2.78691l0.1035,2.01273l8.78301,0l8.7837,0l1.09779,-1.05018l1.09779,-1.04949l0,-4.64784l0,-4.64715l-1.24821,-1.14333c-0.68655,-0.62928 -1.58976,-1.14333 -2.00721,-1.14333c-1.51524,0 -1.1178,-0.64032 0.46023,-0.74175l1.61253,-0.10281l0,-3.04083l0,-3.04014l-7.15461,-0.09108c-4.5954,-0.05865 -7.23051,0.03174 -7.36713,0.25323m-121.15089,4.98939c-0.48852,1.26339 -0.21666,4.78308 0.39882,5.17707c0.26634,0.17043 3.8985,0.27255 8.08404,0.22632l7.60104,-0.0828l0.09729,-3.12432l0.09729,-3.12501l-7.95984,0l-7.95984,0l-0.3588,0.92874m-87.88047,1.311c0.72864,0.19527 0.76038,0.35397 0.76038,3.85296c0,5.11566 0.4416,4.71753 -5.23641,4.71753c-4.08894,0 -4.8576,-0.08142 -5.03148,-0.53475c-0.41055,-1.07088 -0.22701,-7.8453 0.21735,-8.0247c0.60582,-0.24495 8.38488,-0.25392 9.29016,-0.01104m73.002,0.60927c0.24219,1.26132 -0.80523,1.54284 -5.74149,1.54284l-4.6506,0l-0.11523,2.61786l-0.11523,2.61786l-0.06762,-2.93388c-0.03726,-1.61322 0.08142,-3.32787 0.26496,-3.80949l0.33258,-0.87561l4.98387,0.09384c4.61886,0.08625 4.99284,0.14145 5.10876,0.74658m77.55462,-0.61686c0.70794,0.27117 0.67896,1.13022 -0.05727,1.68912c-0.42297,0.32085 -1.90509,0.45195 -5.20812,0.45954c-3.36858,0.00759 -4.66302,0.12489 -4.78722,0.43332c-0.09384,0.23184 -0.18216,-0.21114 -0.19665,-0.98532c-0.01587,-0.83214 0.14559,-1.47729 0.39537,-1.57803c0.60927,-0.24633 9.21909,-0.2622 9.85389,-0.01863" id="path3"/>
   <path stroke="null" fill-rule="evenodd" fill="#63c6f7" d="m155.837449,4.18313c-0.92943,0.0828 -1.83402,0.29256 -2.00997,0.46782c-0.17664,0.17457 -0.67068,0.3174 -1.09848,0.3174c-0.42711,0 -0.77694,0.1518 -0.77694,0.33741c0,0.1863 -0.44712,0.3381 -0.9936,0.3381c-0.54648,0 -1.08744,0.1518 -1.20198,0.3381c-0.11523,0.18561 -0.57477,0.33741 -1.02189,0.33741c-1.16886,0 -6.24105,2.23974 -6.24105,2.75586c0,0.15663 -0.29187,0.28497 -0.64791,0.28497c-0.35604,0 -0.69828,0.11385 -0.75969,0.25323c-0.0621,0.13938 -0.96738,0.67965 -2.01135,1.2006c-1.04397,0.52095 -2.21628,1.24338 -2.60406,1.60494c-0.38778,0.36087 -0.80799,0.65688 -0.93357,0.65688c-0.12489,0 -0.47334,0.26703 -0.77418,0.59271c-0.30015,0.32568 -1.24062,1.14954 -2.08863,1.82988c-1.97064,1.5801 -3.86193,3.47277 -4.99284,4.99491c-0.48921,0.65826 -1.1316,1.42485 -1.42761,1.70361c-0.29601,0.27876 -1.09503,1.34274 -1.77606,2.36463c-0.68103,1.02189 -1.39035,2.04171 -1.57665,2.26596c-0.1863,0.22494 -0.33948,0.56649 -0.33948,0.76038c0,0.19389 -0.1518,0.3519 -0.33741,0.3519c-0.18561,0 -0.3381,0.30429 -0.3381,0.6762c0,0.37122 -0.1518,0.67551 -0.33741,0.67551c-0.1863,0 -0.3381,0.3036 -0.3381,0.67551c0,0.37122 -0.11592,0.67551 -0.25806,0.67551c-0.31395,0 -1.43106,2.50746 -1.43106,3.21195c0,0.69828 0.58305,0.63549 3.17676,-0.34017c1.23441,-0.46506 2.54679,-0.84456 2.91663,-0.84456c0.36984,0 0.93633,-0.13938 1.25856,-0.30981c2.95941,-1.56285 17.57499,-1.58976 22.3767,-0.0414c0.46437,0.14973 1.52835,0.45954 2.36463,0.68793c0.83559,0.22839 1.82436,0.53544 2.19558,0.68241c4.14207,1.63323 5.53242,2.23215 6.25002,2.69238c0.46437,0.29739 1.52835,0.88251 2.36463,1.30065c6.14514,3.06912 13.9587,11.03034 17.98554,18.32364c0.46989,0.85077 1.02327,1.83885 1.22958,2.19627c0.68172,1.17783 2.74344,6.63366 2.74344,7.2588c0,0.33741 0.13455,0.6969 0.30015,0.79902c0.1656,0.10212 0.37398,0.68103 0.46299,1.28685c0.0897,0.60582 0.43194,2.39292 0.76107,3.97233c1.36137,6.53568 0.54648,17.22102 -1.81539,23.805c-0.90942,2.53644 -0.94599,3.34167 -0.1311,2.92146c0.32499,-0.16767 1.65531,-0.81489 2.95527,-1.43727c1.30065,-0.62238 2.41569,-1.24683 2.47779,-1.3869c0.0621,-0.14007 0.31533,-0.25461 0.56304,-0.25461c0.24771,0 0.50094,-0.11385 0.56304,-0.25323c0.0621,-0.13938 0.65412,-0.52785 1.31514,-0.86319c0.66171,-0.33603 1.59459,-0.94392 2.07345,-1.35171c0.47886,-0.40779 1.45797,-1.1937 2.17557,-1.74708c1.36827,-1.0557 5.8719,-5.48481 7.0725,-6.95589c1.32411,-1.62288 3.85986,-5.37993 3.85986,-5.71872c0,-0.1863 0.11454,-0.34017 0.25392,-0.34155c0.30291,-0.00345 1.09779,-1.63944 1.09779,-2.26044c0,-0.24219 0.12489,-0.43953 0.27807,-0.43953c0.38019,0 2.44467,-4.63887 2.66892,-5.99679c0.10005,-0.60375 0.31395,-1.09779 0.47541,-1.09779c0.16146,0 0.29325,-0.44712 0.29325,-0.9936c0,-0.54648 0.15249,-1.08744 0.3381,-1.20198c0.18561,-0.11523 0.3381,-0.62583 0.3381,-1.13505c0,-0.50922 0.13731,-1.07019 0.30498,-1.24683c0.76107,-0.80109 1.42071,-16.46547 0.72243,-17.16375c-0.19389,-0.19389 -0.3519,-1.07295 -0.3519,-1.95339c0,-0.88113 -0.15249,-1.69602 -0.3381,-1.81056c-0.18561,-0.11523 -0.33741,-0.80799 -0.33741,-1.54008c0,-0.73278 -0.15249,-1.3317 -0.3381,-1.3317c-0.18561,0 -0.3381,-0.53199 -0.3381,-1.18197c0,-0.65067 -0.1518,-1.18266 -0.33741,-1.18266c-0.18561,0 -0.3381,-0.31878 -0.3381,-0.70932c0,-0.38985 -0.24357,-1.26408 -0.54096,-1.94235c-0.29739,-0.67827 -0.66516,-1.53732 -0.81627,-1.90923c-0.15111,-0.37122 -0.47679,-1.16955 -0.72381,-1.7733c-0.24633,-0.60375 -0.56373,-1.09779 -0.7038,-1.09779c-0.14076,0 -0.2553,-0.13386 -0.2553,-0.2967c0,-0.65757 -2.9808,-5.31921 -4.2228,-6.60537c-0.37191,-0.38433 -0.87699,-1.09089 -1.12332,-1.56906c-1.0902,-2.11761 -9.43644,-9.44817 -12.55869,-11.03034c-0.64998,-0.32913 -1.23303,-0.71277 -1.29513,-0.85215c-0.06141,-0.13938 -0.40365,-0.25323 -0.75969,-0.25323c-0.35604,0 -0.64791,-0.15249 -0.64791,-0.3381c0,-0.18561 -0.29118,-0.3381 -0.64722,-0.3381c-0.35604,0 -0.69828,-0.11661 -0.76038,-0.26013c-0.17664,-0.40986 -4.41945,-2.10657 -5.26401,-2.10519c-0.41814,0.00069 -0.76038,-0.15111 -0.76038,-0.33672c0,-0.1863 -0.37053,-0.3381 -0.82455,-0.3381c-0.45333,0 -0.91839,-0.1518 -1.03293,-0.3381c-0.11523,-0.18561 -0.71967,-0.33741 -1.34343,-0.33741c-0.62376,0 -1.1937,-0.17871 -1.26615,-0.39675c-0.13455,-0.40365 -16.31367,-0.7176 -20.02449,-0.38847" id="path4"/>
  </g>
 </g>
</svg>